<svg width="35" height="35" viewBox="0 0 35 35" fill="none" xmlns="http://www.w3.org/2000/svg">
<path d="M15.9273 0.67533C8.09139 1.55212 1.78862 8.0404 0.936895 15.9315C0.0851699 24.1734 4.68449 31.5385 11.6686 34.3442C12.1797 34.5196 12.6907 34.1688 12.6907 33.4674V30.6617C12.6907 30.6617 12.0093 30.837 11.1576 30.837C8.77277 30.837 7.7507 28.7327 7.58035 27.5052C7.41001 26.8038 7.06932 26.2777 6.55828 25.7516C6.04725 25.5763 5.8769 25.5763 5.8769 25.4009C5.8769 25.0502 6.38794 25.0502 6.55828 25.0502C7.58035 25.0502 8.43208 26.2777 8.77277 26.8038C9.6245 28.2066 10.6466 28.5574 11.1576 28.5574C11.839 28.5574 12.35 28.382 12.6907 28.2066C12.8611 26.9791 13.3721 25.7516 14.3942 25.0502C10.4762 24.1734 7.58035 21.8937 7.58035 18.0358C7.58035 16.1069 8.43208 14.178 9.6245 12.7751C9.45415 12.4244 9.28381 11.5476 9.28381 10.3201C9.28381 9.61862 9.28381 8.56647 9.79484 7.51432C9.79484 7.51432 12.1797 7.51432 14.5645 9.79398C15.4162 9.44327 16.6086 9.26791 17.8011 9.26791C18.9935 9.26791 20.1859 9.44327 21.208 9.79398C23.4224 7.51432 25.9776 7.51432 25.9776 7.51432C26.3183 8.56647 26.3183 9.61862 26.3183 10.3201C26.3183 11.7229 26.148 12.4244 25.9776 12.7751C27.17 14.178 28.0218 15.9315 28.0218 18.0358C28.0218 21.8937 25.1259 24.1734 21.208 25.0502C22.23 25.927 22.9114 27.5052 22.9114 29.0834V33.6428C22.9114 34.1688 23.4224 34.6949 24.1038 34.5196C30.4066 31.8892 34.8356 25.5763 34.8356 18.2112C34.8356 7.68968 26.148 -0.552181 15.9273 0.67533Z" fill="#FEC63E"/>
</svg>
