<svg width="35" height="34" viewBox="0 0 35 34" fill="none" xmlns="http://www.w3.org/2000/svg">
<path d="M31.1115 23.7586C31.1115 24.6822 30.9296 25.5969 30.5761 26.4503C30.2226 27.3036 29.7045 28.079 29.0514 28.7322C28.3982 29.3853 27.6228 29.9034 26.7695 30.2569C25.9161 30.6104 25.0015 30.7923 24.0778 30.7923H10.5607C8.69518 30.7923 6.90612 30.0513 5.58704 28.7322C4.26795 27.4131 3.5269 25.624 3.5269 23.7586V10.2404C3.5269 8.37491 4.26795 6.58585 5.58704 5.26676C6.90612 3.94768 8.69518 3.20662 10.5607 3.20662H24.0778C25.9432 3.20662 27.7323 3.94768 29.0514 5.26676C30.3705 6.58585 31.1115 8.37491 31.1115 10.2404V23.7586V23.7586ZM34.3192 10.2404C34.3192 4.58469 29.7335 0 24.0767 0H10.5617C4.9039 0 0.319214 4.58469 0.319214 10.2404V23.7586C0.319214 29.4143 4.90496 34 10.5617 34H24.0767C26.7932 34 29.3984 32.9209 31.3193 31C33.2401 29.0792 34.3192 26.474 34.3192 23.7575V10.2404ZM17.3766 22.5972C15.9507 22.5956 14.5836 22.0284 13.5754 21.0201C12.5671 20.0118 11.9999 18.6448 11.9982 17.2189C11.9999 15.793 12.5671 14.4259 13.5754 13.4177C14.5836 12.4094 15.9507 11.8422 17.3766 11.8405C18.8026 11.8419 20.1698 12.409 21.1781 13.4173C22.1865 14.4257 22.7536 15.7929 22.755 17.2189C22.7536 18.6449 22.1865 20.0121 21.1781 21.0204C20.1698 22.0287 18.8026 22.5958 17.3766 22.5972V22.5972ZM17.3766 8.823C12.7473 8.823 8.98071 12.5896 8.98071 17.2189C8.98071 21.8492 12.7473 25.6147 17.3766 25.6147C22.007 25.6147 25.7735 21.8492 25.7735 17.2189C25.7735 12.5896 22.007 8.823 17.3766 8.823V8.823ZM26.2633 6.25919C26.0008 6.25919 25.7409 6.3109 25.4983 6.41136C25.2558 6.51182 25.0354 6.65908 24.8498 6.84471C24.6641 7.03034 24.5169 7.25072 24.4164 7.49326C24.316 7.7358 24.2642 7.99576 24.2642 8.25828C24.2642 8.52081 24.316 8.78076 24.4164 9.0233C24.5169 9.26584 24.6641 9.48622 24.8498 9.67185C25.0354 9.85749 25.2558 10.0047 25.4983 10.1052C25.7409 10.2057 26.0008 10.2574 26.2633 10.2574C26.7935 10.2574 27.302 10.0468 27.6769 9.67185C28.0518 9.29695 28.2624 8.78847 28.2624 8.25828C28.2624 7.72809 28.0518 7.21961 27.6769 6.84471C27.302 6.46981 26.7935 6.25919 26.2633 6.25919V6.25919Z" fill="#FEC63E"/>
</svg>
