<svg width="35" height="34" viewBox="0 0 35 34" fill="none" xmlns="http://www.w3.org/2000/svg">
<path d="M27.127 0H7.29366C3.38224 0 0.210327 3.17192 0.210327 7.08333V26.9167C0.210327 30.8281 3.38224 34 7.29366 34H27.127C31.0398 34 34.2103 30.8281 34.2103 26.9167V7.08333C34.2103 3.17192 31.0398 0 27.127 0ZM11.5437 26.9167H7.29366V11.3333H11.5437V26.9167ZM9.41866 9.537C8.05016 9.537 6.93949 8.41783 6.93949 7.038C6.93949 5.65817 8.05016 4.539 9.41866 4.539C10.7872 4.539 11.8978 5.65817 11.8978 7.038C11.8978 8.41783 10.7886 9.537 9.41866 9.537ZM28.5437 26.9167H24.2937V18.9777C24.2937 14.2063 18.627 14.5676 18.627 18.9777V26.9167H14.377V11.3333H18.627V13.8338C20.6047 10.1703 28.5437 9.89967 28.5437 17.3414V26.9167Z" fill="#FEC63E"/>
</svg>
